<?xml version="1.0" standalone="no"?><!DOCTYPE svg PUBLIC "-//W3C//DTD SVG 1.1//EN" "http://www.w3.org/Graphics/SVG/1.1/DTD/svg11.dtd"><svg t="1648539984277" class="icon" viewBox="0 0 1097 1024" version="1.1" xmlns="http://www.w3.org/2000/svg" p-id="16423" xmlns:xlink="http://www.w3.org/1999/xlink" width="274.25" height="256"><defs><style type="text/css">@font-face { font-family: feedback-iconfont; src: url("//at.alicdn.com/t/font_1031158_u69w8yhxdu.woff2?t=1630033759944") format("woff2"), url("//at.alicdn.com/t/font_1031158_u69w8yhxdu.woff?t=1630033759944") format("woff"), url("//at.alicdn.com/t/font_1031158_u69w8yhxdu.ttf?t=1630033759944") format("truetype"); }
</style></defs><path d="M1097.142857 658.285714c0 121.161143-98.304 219.428571-219.428571 219.428572H256c-141.129143 0-256-114.870857-256-256a255.744 255.744 0 0 1 147.419429-231.424A345.270857 345.270857 0 0 1 146.285714 365.714286c0-161.718857 130.852571-292.571429 292.571429-292.571429a292.681143 292.681143 0 0 1 270.848 181.723429A142.116571 142.116571 0 0 1 804.571429 219.428571c80.566857 0 146.285714 65.718857 146.285714 146.285715 0 29.147429-8.557714 55.990857-23.442286 78.848 97.133714 22.857143 169.728 109.714286 169.728 213.723428z" fill="" p-id="16424"></path></svg>