<?xml version="1.0" standalone="no"?><!DOCTYPE svg PUBLIC "-//W3C//DTD SVG 1.1//EN" "http://www.w3.org/Graphics/SVG/1.1/DTD/svg11.dtd"><svg t="1648540032207" class="icon" viewBox="0 0 1024 1024" version="1.1" xmlns="http://www.w3.org/2000/svg" p-id="16558" xmlns:xlink="http://www.w3.org/1999/xlink" width="256" height="256"><defs><style type="text/css">@font-face { font-family: feedback-iconfont; src: url("//at.alicdn.com/t/font_1031158_u69w8yhxdu.woff2?t=1630033759944") format("woff2"), url("//at.alicdn.com/t/font_1031158_u69w8yhxdu.woff?t=1630033759944") format("woff"), url("//at.alicdn.com/t/font_1031158_u69w8yhxdu.ttf?t=1630033759944") format("truetype"); }
</style></defs><path d="M786.285714 438.857143a54.857143 54.857143 0 0 1 54.857143 54.857143v329.142857a54.857143 54.857143 0 0 1-54.857143 54.857143h-548.571428A54.857143 54.857143 0 0 1 182.857143 822.857143v-329.142857A54.857143 54.857143 0 0 1 237.714286 438.857143H256V256c0-141.129143 114.870857-256 256-256s256 114.870857 256 256c0 20.004571-16.566857 36.571429-36.571429 36.571429h-36.571428c-20.004571 0-36.571429-16.566857-36.571429-36.571429 0-80.566857-65.718857-146.285714-146.285714-146.285714S365.714286 175.433143 365.714286 256v182.857143h420.571428z" fill="" p-id="16559"></path></svg>